<svg width="20" height="20" viewBox="0 0 20 20" fill="none" xmlns="http://www.w3.org/2000/svg">
<path d="M16.9348 2.15039L18.349 3.5646L3.66215 18.2515L2.24794 16.8373L16.9348 2.15039Z" fill="#06000E"/>
<path d="M14.4561 3.21501C13.203 2.48449 11.7226 2 10 2C3 2 0 10 0 10C0 10 0.934417 12.4918 2.97708 14.694L7.0619 10.6092C7.02132 10.4125 7 10.2087 7 10C7 8.34315 8.34315 7 10 7C10.2087 7 10.4125 7.02132 10.6092 7.0619L14.4561 3.21501Z" fill="#06000E"/>
<path d="M17.4908 5.8372L12.98 10.3479C12.8208 11.7267 11.7267 12.8208 10.3479 12.98L6.19611 17.1319C7.30224 17.6649 8.56734 18 10 18C17 18 20 10 20 10C20 10 19.2087 7.88997 17.4908 5.8372Z" fill="#06000E"/>
</svg>
